#!OML:ASF I:\Actors\actors\Patient Classification 2\Patient 1\Session 1\actor1.ASF
:FULLY-SPECIFIED
:DEGREES
296
root -0.946719 18.2705 5.20543 22.2358 -1.34994 -2.76499
lowerback 22.6438 -1.39161 5.23496
upperback -0.241556 -0.0920327 2.65454
thorax -13.0603 -0.275307 0.0382744
lowerneck -17.943 -0.629686 1.21229
upperneck 13.1602 -0.801696 -2.1028
head 6.94919 -0.517384 -0.970327
rclavicle 1.53064e-014 -9.54166e-015
rhumerus -65.259 0.575622 -96.2745
rradius 116.115
rwrist 23.5638
rhand -10.9707 -43.622
rfingers 7.12502
rthumb 15.0487 -73.0551
lclavicle 1.53064e-014 -9.54166e-015
lhumerus -52.7611 -14.8459 100.403
lradius 125.423
lwrist -18.368
lhand 19.9661 -2.02331
lfingers 7.12502
lthumb 44.5035 21.6692
rfemur -35.1912 -9.07116 20.313
rtibia 32.1646
rfoot -19.4979 0.0772252
rtoes -13.4934
lfemur -44.3685 10.4304 -12.688
ltibia 45.6775
lfoot -16.3018 0.478704
ltoes -57.9206
297
root -0.931371 18.3046 5.22097 21.8548 -1.7791 -2.9499
lowerback 22.78 -1.44151 5.29984
upperback -0.27907 -0.116183 2.74403
thorax -13.1832 -0.289048 0.114899
lowerneck -17.8791 -0.409282 1.53898
upperneck 13.6059 -0.505615 -2.53342
head 7.08719 -0.398749 -1.13435
rclavicle 1.37161e-014 1.11319e-014
rhumerus -65.3501 0.450925 -96.4092
rradius 116.06
rwrist 23.7566
rhand -12.0978 -43.0461
rfingers 7.12502
rthumb 13.9628 -72.5573
lclavicle 1.37161e-014 1.11319e-014
lhumerus -52.919 -14.8234 100.274
lradius 125.42
lwrist -18.2767
lhand 19.742 -2.17138
lfingers 7.12502
lthumb 44.2946 21.6007
rfemur -34.1666 -8.50977 20.2069
rtibia 31.0653
rfoot -19.1841 -0.281131
rtoes -13.4194
lfemur -43.6021 10.576 -12.4711
ltibia 45.3812
lfoot -15.9005 0.546874
ltoes -57.9505
298
root -0.921456 18.3377 5.23744 21.433 -2.24174 -3.15014
lowerback 22.955 -1.47076 5.14745
upperback -0.285372 -0.160927 2.90029
thorax -13.2907 -0.293842 0.398396
lowerneck -17.8245 -0.152454 1.88103
upperneck 14.1354 -0.151467 -3.008
head 7.25847 -0.256445 -1.31006
rclavicle -1.11319e-014 -2.42517e-014
rhumerus -65.4653 0.36584 -96.6369
rradius 116.015
rwrist 24.0109
rhand -11.9105 -43.1321
rfingers 7.12502
rthumb 14.1432 -72.6307
lclavicle -1.11319e-014 -2.42517e-014
lhumerus -53.0572 -14.6705 100.173
lradius 125.436
lwrist -18.203
lhand 19.6601 -2.13246
lfingers 7.12502
lthumb 44.2183 21.6685
rfemur -33.0831 -7.8144 20.0973
rtibia 29.9901
rfoot -18.9506 -0.699122
rtoes -13.3291
lfemur -42.78 10.7921 -12.2286
ltibia 45.1197
lfoot -15.7261 0.608339
ltoes -58.0255
299
root -0.914018 18.3707 5.25444 20.967 -2.61849 -3.34311
lowerback 23.1499 -1.49828 4.89862
upperback -0.219463 -0.226084 3.10245
thorax -13.3242 -0.297455 0.794936
lowerneck -17.8045 0.0923439 2.19873
upperneck 14.5739 0.189198 -3.45438
head 7.40895 -0.120036 -1.47402
rclavicle -1.23246e-014 3.65764e-014
rhumerus -65.5954 0.413458 -96.6949
rradius 116.117
rwrist 24.007
rhand -11.9193 -43.3724
rfingers 7.12502
rthumb 14.1348 -72.8716
lclavicle -1.23246e-014 3.65764e-014
lhumerus -53.1583 -14.6097 100.077
lradius 125.514
lwrist -18.1482
lhand 20.2377 -2.5184
lfingers 7.12502
lthumb 44.7564 21.0765
rfemur -31.9562 -7.03254 19.9723
rtibia 29.0046
rfoot -18.8879 -1.19646
rtoes -13.0801
lfemur -41.9413 11.0002 -11.9686
ltibia 44.9262
lfoot -15.6116 0.601235
ltoes -57.9893
300
root -0.892924 18.397 5.26369 20.5606 -2.9864 -3.55389
lowerback 23.2675 -1.53984 4.67201
upperback -0.0370615 -0.312185 3.33994
thorax -13.1768 -0.308529 1.22061
lowerneck -17.7501 0.388853 2.51207
upperneck 14.7148 0.598409 -3.90528
head 7.46116 0.0491273 -1.62854
rclavicle -8.94531e-015 1.15295e-014
rhumerus -65.5694 0.677559 -96.6078
rradius 116.337
rwrist 23.8402
rhand -11.9958 -43.6341
rfingers 7.12502
rthumb 14.0611 -73.1384
lclavicle -8.94531e-015 1.15295e-014
lhumerus -53.0626 -14.568 99.9281
lradius 125.628
lwrist -18.0668
lhand 21.0631 -3.05337
lfingers 7.12502
lthumb 45.5241 20.2367
rfemur -31.0235 -6.30426 19.8478
rtibia 28.1696
rfoot -18.8059 -1.61806
rtoes -12.6824
lfemur -41.2813 11.1536 -11.7634
ltibia 44.8521
lfoot -15.5272 0.679922
ltoes -57.972
301
root -0.860285 18.4096 5.26225 20.3027 -3.46465 -3.84225
lowerback 23.6426 -1.59337 4.80748
upperback -0.0616568 -0.308003 3.40039
thorax -13.4187 -0.315014 1.22293
lowerneck -17.7195 0.662503 2.90845
upperneck 14.9665 0.937663 -4.23987
head 7.55423 0.200237 -1.76746
rclavicle 1.11319e-014 -5.12864e-014
rhumerus -65.8193 0.712853 -96.6679
rradius 116.616
rwrist 23.7238
rhand -12.1793 -43.9686
rfingers 7.12502
rthumb 13.8842 -73.4851
lclavicle 1.11319e-014 -5.12864e-014
lhumerus -53.349 -14.7532 99.6839
lradius 125.789
lwrist -17.9272
lhand 20.4307 -2.99905
lfingers 7.12502
lthumb 44.9361 20.5257
rfemur -30.4478 -5.51312 19.7712
rtibia 27.5575
rfoot -18.6547 -1.98793
rtoes -12.3978
lfemur -40.9185 11.4319 -11.6175
ltibia 44.932
lfoot -15.5054 0.852315
ltoes -57.9375
